<?xml version="1.0" encoding="utf-8"?><svg xmlns="http://www.w3.org/2000/svg" xmlns:xlink="http://www.w3.org/1999/xlink"><symbol fill="none" viewBox="0 0 85 100" id="css" xmlns="http://www.w3.org/2000/svg"><path d="M.01 0l7.663 90 34.408 10 34.395-9.994L84.151 0H.01z" fill="#2196F3"/><path d="M67.767 29.431L66.8 40.737l-2.921 33.894L42.08 80.9l-.018.006-21.786-6.275-1.521-17.725h10.674l.793 9.194 11.846 3.325.006-.006 11.864-3.325 1.617-15.32-37.31.107-1.059-10.475 39.264-.481.794-11.213-41.11.12-.69-10.432H68.716l-.95 11.031z" fill="#FAFAFA"/></symbol><symbol fill="none" viewBox="0 0 70 100" id="figma" xmlns="http://www.w3.org/2000/svg"><g clip-path="url(#bclip0)"><path d="M17.375 100c9.588 0 17.37-7.466 17.37-16.666V66.666h-17.37c-9.588 0-17.37 7.466-17.37 16.666S7.788 100 17.376 100z" fill="#0ACF83"/><path d="M.006 50c0-9.2 7.781-16.667 17.37-16.667h17.369v33.334h-17.37C7.787 66.666.005 59.2.005 50z" fill="#A259FF"/><path d="M.004 16.667C.004 7.467 7.785 0 17.374 0h17.369v33.333h-17.37c-9.588 0-17.37-7.466-17.37-16.666z" fill="#F24E1E"/><path d="M34.746 0h17.37c9.587 0 17.369 7.467 17.369 16.667 0 9.2-7.782 16.666-17.37 16.666h-17.37V0z" fill="#FF7262"/><path d="M69.485 50c0 9.2-7.782 16.666-17.37 16.666-9.588 0-17.37-7.466-17.37-16.666s7.782-16.667 17.37-16.667c9.588 0 17.37 7.467 17.37 16.667z" fill="#1ABCFE"/></g><defs><clipPath id="bclip0"><path fill="#fff" d="M0 0h69.492v100H0z"/></clipPath></defs></symbol><symbol fill="none" viewBox="0 0 35 35" id="github" xmlns="http://www.w3.org/2000/svg"><path d="M17.484 0C7.824-.004 0 7.816 0 17.469c0 7.633 4.895 14.12 11.71 16.504.919.23.778-.422.778-.867v-3.028c-5.3.621-5.515-2.887-5.87-3.473-.72-1.226-2.419-1.539-1.911-2.125 1.207-.62 2.438.157 3.863 2.262 1.032 1.528 3.043 1.27 4.063 1.016.223-.918.699-1.738 1.355-2.375-5.492-.985-7.781-4.336-7.781-8.32 0-1.934.637-3.711 1.887-5.145-.797-2.363.074-4.387.191-4.688 2.27-.203 4.63 1.625 4.813 1.77 1.289-.348 2.761-.531 4.41-.531 1.656 0 3.133.191 4.433.543.442-.336 2.63-1.907 4.739-1.715.113.3.965 2.277.215 4.61 1.265 1.437 1.91 3.23 1.91 5.167 0 3.992-2.305 7.348-7.813 8.317a4.984 4.984 0 011.488 3.554v4.395c.032.351 0 .7.586.7 6.918-2.333 11.899-8.868 11.899-16.567C34.965 7.816 27.137 0 17.485 0z" fill="#000"/></symbol><symbol fill="none" viewBox="0 0 85 100" id="html" xmlns="http://www.w3.org/2000/svg"><path d="M.016 0l7.669 90 34.436 10 34.425-9.994L84.227 0H.016z" fill="#FF5722"/><path d="M67.596 29.432H27.233l.962 11.306h38.437l-2.893 33.9-21.619 6.269-.018.006-21.606-6.275-1.51-17.731h10.587l.788 9.2 11.747 3.318.012-.006 11.76-3.319 1.227-14.318H18.554L15.704 18.4h52.83l-.939 11.032z" fill="#FAFAFA"/></symbol><symbol fill="none" viewBox="0 0 97 100" id="js" xmlns="http://www.w3.org/2000/svg"><path d="M0 0h96.242v100H0V0z" fill="#F7DF1E"/><path d="M25.306 83.567l7.365-4.631c1.42 2.617 2.713 4.832 5.814 4.832 2.971 0 4.845-1.208 4.845-5.906V45.91h9.044v32.085c0 9.733-5.49 14.163-13.502 14.163-7.235 0-11.435-3.893-13.566-8.592M57.287 82.56l7.364-4.43c1.939 3.29 4.458 5.706 8.916 5.706 3.747 0 6.137-1.947 6.137-4.632 0-3.222-2.455-4.363-6.59-6.242l-2.26-1.008C64.328 69.068 60 65.444 60 57.791c0-7.048 5.168-12.419 13.244-12.419 5.75 0 9.884 2.081 12.856 7.519l-7.042 4.698c-1.55-2.886-3.23-4.027-5.814-4.027-2.649 0-4.329 1.745-4.329 4.027 0 2.82 1.68 3.961 5.556 5.706l2.26 1.007c7.689 3.424 12.017 6.914 12.017 14.768 0 8.458-6.395 13.09-14.988 13.09-8.398 0-13.825-4.162-16.473-9.6" fill="#000"/></symbol><symbol fill="none" viewBox="0 0 39 39" id="linked-in" xmlns="http://www.w3.org/2000/svg"><path d="M19.2 0C8.596 0 0 8.596 0 19.2s8.596 19.2 19.2 19.2 19.2-8.596 19.2-19.2S29.804 0 19.2 0zm-4.7 27.158h-3.888V14.646H14.5v12.512zM12.532 13.11c-1.228 0-2.022-.87-2.022-1.946 0-1.098.818-1.942 2.072-1.942s2.022.844 2.046 1.942c0 1.076-.792 1.946-2.096 1.946zM28.7 27.158h-3.888v-6.934c0-1.614-.564-2.71-1.97-2.71-1.074 0-1.712.742-1.994 1.456-.104.254-.13.614-.13.972v7.214h-3.89v-8.52c0-1.562-.05-2.868-.102-3.992h3.378l.178 1.738h.078c.512-.816 1.766-2.02 3.864-2.02 2.558 0 4.476 1.714 4.476 5.398v7.398z" fill="#000"/></symbol><symbol fill="none" viewBox="0 0 38 36" id="mail" xmlns="http://www.w3.org/2000/svg"><path d="M17.86 7.367c2.825 0 5.487 1.252 7.438 3.21v.005c0-.94.632-1.65 1.506-1.65h.222c1.38 0 1.656 1.3 1.656 1.71l.006 14.61c-.096.957.988 1.452 1.59.837 2.342-2.409 5.148-12.394-1.457-18.175-6.16-5.396-14.43-4.505-18.825-1.475-4.673 3.228-7.66 10.358-4.758 17.06 3.168 7.306 12.225 9.486 17.615 7.312 2.73-1.102 3.987 2.582 1.15 3.788-4.274 1.823-16.187 1.637-21.75-7.998-3.76-6.508-3.56-17.958 6.413-23.89C16.29-1.828 26.347-.57 32.411 5.76c6.336 6.624 5.97 19.018-.216 23.836-2.802 2.191-6.962.06-6.932-3.132l-.031-1.041c-1.95 1.932-4.547 3.065-7.371 3.065-5.588 0-10.508-4.92-10.508-10.503 0-5.643 4.92-10.616 10.508-10.616v-.002zm7.03 10.214c-.212-4.09-3.247-6.552-6.915-6.552h-.139c-4.227 0-6.575 3.33-6.575 7.105 0 4.233 2.836 6.906 6.558 6.906 4.155 0 6.882-3.04 7.08-6.636l-.01-.823z" fill="#000"/></symbol><symbol fill="none" viewBox="0 0 103 100" id="mysql" xmlns="http://www.w3.org/2000/svg"><path d="M94.856 77.343c-5.604-.138-9.946.416-13.588 1.94-1.05.416-2.732.416-2.872 1.733.56.554.63 1.455 1.12 2.217.842 1.385 2.312 3.256 3.643 4.226 1.47 1.109 2.942 2.217 4.482 3.187 2.732 1.663 5.814 2.633 8.475 4.296 1.542.97 3.082 2.218 4.623 3.257.77.553 1.26 1.455 2.241 1.801v-.208c-.49-.624-.63-1.524-1.12-2.217-.7-.693-1.401-1.317-2.102-2.01-2.03-2.701-4.552-5.057-7.284-6.997-2.24-1.525-7.144-3.603-8.055-6.167l-.14-.138c1.541-.139 3.362-.693 4.833-1.109 2.382-.624 4.553-.485 7.004-1.108 1.12-.278 2.242-.624 3.362-.97v-.624c-1.26-1.247-2.171-2.91-3.502-4.088-3.572-3.049-7.494-6.028-11.556-8.522-2.172-1.386-4.974-2.287-7.285-3.464-.84-.417-2.241-.624-2.731-1.317-1.261-1.524-1.962-3.533-2.872-5.335-2.03-3.811-3.992-8.037-5.743-12.056-1.26-2.702-2.031-5.404-3.572-7.898-7.214-11.779-15.059-18.915-27.105-25.913-2.592-1.455-5.674-2.079-8.966-2.84-1.75-.07-3.502-.209-5.253-.278-1.12-.485-2.24-1.801-3.222-2.425C13.68 1.82 3.384-3.583.441 3.554c-1.89 4.503 2.802 8.937 4.413 11.224 1.191 1.594 2.732 3.395 3.573 5.197.49 1.177.63 2.425 1.12 3.672 1.12 3.048 2.171 6.443 3.642 9.284.77 1.455 1.611 2.98 2.592 4.296.56.762 1.54 1.108 1.75 2.356-.98 1.385-1.05 3.464-1.61 5.196-2.522 7.83-1.541 17.53 2.03 23.28 1.121 1.732 3.783 5.543 7.355 4.088 3.152-1.247 2.451-5.197 3.362-8.66.21-.833.07-1.387.49-1.94v.138c.98 1.94 1.961 3.81 2.871 5.75 2.172 3.395 5.954 6.93 9.106 9.285 1.681 1.247 3.012 3.395 5.113 4.157v-.208h-.14c-.42-.624-1.05-.9-1.611-1.386-1.26-1.247-2.662-2.771-3.642-4.157-2.941-3.88-5.533-8.175-7.845-12.61-1.12-2.148-2.1-4.504-3.011-6.651-.42-.832-.42-2.079-1.121-2.494-1.05 1.523-2.591 2.84-3.362 4.711-1.33 2.98-1.47 6.651-1.961 10.462-.28.07-.14 0-.28.139-2.241-.555-3.012-2.84-3.853-4.781-2.1-4.92-2.451-12.818-.63-18.5.49-1.455 2.592-6.027 1.751-7.413-.42-1.317-1.821-2.079-2.591-3.118-.91-1.317-1.891-2.98-2.522-4.434-1.68-3.88-2.521-8.176-4.342-12.056-.84-1.802-2.311-3.672-3.502-5.335-1.33-1.87-2.802-3.187-3.852-5.405-.35-.762-.84-2.009-.28-2.84.14-.554.42-.762.98-.9.91-.763 3.502.207 4.413.623 2.591 1.038 4.762 2.009 6.934 3.464.98.693 2.03 2.01 3.291 2.356h1.471c2.242.484 4.763.138 6.864.762 3.712 1.177 7.074 2.91 10.086 4.78 9.175 5.751 16.74 13.927 21.852 23.697.841 1.593 1.19 3.048 1.962 4.71 1.47 3.396 3.291 6.86 4.762 10.186 1.47 3.256 2.871 6.582 4.973 9.285 1.05 1.454 5.253 2.216 7.144 2.979 1.4.623 3.572 1.178 4.833 1.94 2.38 1.454 4.762 3.117 7.004 4.711 1.12.831 4.622 2.564 4.833 3.949z" fill="#00546B"/></symbol><symbol fill="none" viewBox="0 0 86 100" id="nodejs" xmlns="http://www.w3.org/2000/svg"><path d="M42.739 99.814c-1.328 0-2.566-.366-3.717-1.008L27.254 91.56c-1.77-1.008-.885-1.375-.354-1.558 2.389-.826 2.831-1.01 5.309-2.476.265-.184.62-.092.885.091l9.025 5.594c.354.183.797.183 1.062 0L78.487 72.03c.354-.184.53-.55.53-1.01V28.749c0-.459-.176-.826-.53-1.009L43.18 6.649c-.354-.184-.796-.184-1.062 0L6.813 27.738c-.354.183-.53.642-.53 1.009V71.02c0 .367.176.825.53 1.009l9.645 5.777c5.221 2.75 8.495-.459 8.495-3.668V32.416c0-.55.442-1.1 1.062-1.1h4.513c.53 0 1.061.458 1.061 1.1v41.723c0 7.244-3.804 11.462-10.44 11.462-2.036 0-3.629 0-8.142-2.292l-9.29-5.502C1.415 76.43 0 73.864 0 71.113V28.839c0-2.75 1.416-5.318 3.716-6.694L39.022.963c2.212-1.284 5.22-1.284 7.433 0l35.306 21.182c2.3 1.376 3.716 3.943 3.716 6.694v42.274c0 2.75-1.416 5.318-3.716 6.694L46.455 98.989c-1.15.55-2.478.825-3.716.825zm10.883-29.068c-15.485 0-18.67-7.336-18.67-13.572 0-.55.442-1.1 1.062-1.1h4.601c.53 0 .973.367.973.917.708 4.86 2.743 7.244 12.123 7.244 7.433 0 10.618-1.742 10.618-5.868 0-2.385-.885-4.127-12.476-5.32-9.645-1.008-15.662-3.209-15.662-11.186 0-7.428 6.017-11.83 16.104-11.83 11.326 0 16.9 4.035 17.609 12.838 0 .275-.089.55-.266.826-.177.183-.442.366-.708.366h-4.6c-.443 0-.886-.366-.974-.825-1.062-5.043-3.805-6.694-11.06-6.694-8.142 0-9.115 2.934-9.115 5.135 0 2.66 1.15 3.485 12.123 4.952 10.883 1.467 16.016 3.576 16.016 11.462-.089 8.07-6.46 12.655-17.698 12.655z" fill="#539E43"/></symbol><symbol fill="none" viewBox="0 0 106 100" id="react" xmlns="http://www.w3.org/2000/svg"><path d="M0 49.55c0 8.354 7.802 16.153 20.102 20.55-2.456 12.929-.44 23.35 6.293 27.41 6.922 4.174 17.234 1.285 27.02-7.66 9.54 8.584 19.182 11.962 25.91 7.89 6.915-4.186 9.018-15.314 6.494-28.647 12.811-4.429 19.978-11.079 19.978-19.543 0-8.16-7.817-15.22-19.951-19.588 2.717-13.884.415-24.052-6.598-28.28-6.76-4.077-16.514-.524-26.195 8.285C42.983.617 33.325-2.237 26.32 2.003c-6.754 4.088-8.681 14.699-6.217 27.868C8.217 34.203 0 41.423 0 49.55z" fill="#fff"/><path d="M83.275 34.3a60.965 60.965 0 00-3.025-.997c.171-.73.328-1.45.468-2.157 2.289-11.62.792-20.982-4.32-24.064-4.901-2.956-12.917.126-21.013 7.493a63.991 63.991 0 00-2.34 2.244 58.076 58.076 0 00-1.556-1.503C43.004 7.438 34.499 4.119 29.393 7.21c-4.897 2.964-6.348 11.765-4.287 22.778.2 1.064.432 2.15.695 3.254a60.139 60.139 0 00-3.477 1.144c-9.948 3.626-16.3 9.31-16.3 15.204 0 6.089 6.82 12.195 17.18 15.898a51.72 51.72 0 002.54.831 66.795 66.795 0 00-.737 3.507c-1.965 10.822-.43 19.415 4.453 22.36 5.045 3.042 13.51-.085 21.755-7.62a54.361 54.361 0 001.96-1.889c.85.855 1.697 1.664 2.54 2.423 7.985 7.185 15.872 10.086 20.751 7.133 5.04-3.05 6.678-12.282 4.551-23.512a57.857 57.857 0 00-.563-2.626 54.358 54.358 0 001.747-.571c10.771-3.732 17.78-9.764 17.78-15.934 0-5.916-6.558-11.638-16.706-15.29z" fill="#53C1DE"/><path d="M80.939 61.54c-.514.178-1.041.35-1.578.517-1.19-3.936-2.794-8.122-4.758-12.446 1.874-4.221 3.417-8.353 4.572-12.264.962.29 1.894.597 2.793.921 8.695 3.13 13.998 7.757 13.998 11.322 0 3.798-5.727 8.728-15.027 11.95zm-3.86 7.996c.94 4.966 1.075 9.456.452 12.966-.56 3.154-1.684 5.257-3.076 6.099-2.961 1.792-9.293-.538-16.122-6.682a58.57 58.57 0 01-2.363-2.253c2.648-3.027 5.294-6.547 7.876-10.456 4.542-.421 8.834-1.11 12.725-2.05.192.808.362 1.6.509 2.376zM38.057 88.29c-2.893 1.068-5.198 1.099-6.59.26-2.964-1.788-4.196-8.687-2.515-17.942.192-1.06.421-2.149.685-3.262 3.85.89 8.109 1.53 12.662 1.917 2.6 3.825 5.322 7.34 8.066 10.419a50.31 50.31 0 01-1.79 1.723c-3.646 3.332-7.3 5.696-10.518 6.885zM24.502 61.517c-4.581-1.637-8.365-3.765-10.958-6.087-2.33-2.087-3.507-4.159-3.507-5.84 0-3.577 5.1-8.14 13.608-11.241a56.093 56.093 0 013.234-1.064c1.176 3.999 2.718 8.18 4.58 12.408-1.886 4.29-3.45 8.538-4.637 12.584-.8-.24-1.574-.494-2.32-.76zm4.544-32.335c-1.766-9.435-.594-16.553 2.357-18.34 3.144-1.902 10.095.81 17.42 7.612.469.435.939.89 1.41 1.36-2.73 3.066-5.427 6.555-8.004 10.357-4.419.429-8.649 1.117-12.538 2.038a63.939 63.939 0 01-.645-3.027zm40.528 10.464a134.75 134.75 0 00-2.857-4.913c2.998.396 5.87.922 8.567 1.566a92.281 92.281 0 01-3.007 8.46 148.446 148.446 0 00-2.703-5.113zM53.047 22.814a88.945 88.945 0 015.529 6.98 112.993 112.993 0 00-11.105-.003 91.729 91.729 0 015.576-6.977zM36.413 39.675a125.9 125.9 0 00-2.652 5.08 95.423 95.423 0 01-2.986-8.5c2.681-.628 5.54-1.14 8.519-1.53a124.44 124.44 0 00-2.88 4.95zm2.966 25.08c-3.077-.36-5.979-.846-8.659-1.456a96.974 96.974 0 013.046-8.673 125.128 125.128 0 005.614 10.129zm13.779 11.908a93.365 93.365 0 01-5.653-7.074c1.799.074 3.633.111 5.497.111 1.915 0 3.808-.045 5.672-.132-1.83 2.6-3.677 4.978-5.516 7.095zm19.157-22.188c1.256 2.993 2.315 5.889 3.156 8.642-2.725.65-5.666 1.173-8.765 1.562a148.23 148.23 0 002.884-4.999 135.358 135.358 0 002.725-5.205zm-6.201 3.109a138.775 138.775 0 01-4.508 7.604c-2.788.208-5.668.316-8.604.316-2.924 0-5.768-.095-8.507-.281a119.95 119.95 0 01-8.601-15.532 120.989 120.989 0 013.997-7.92 118.8 118.8 0 014.555-7.583c2.795-.22 5.66-.336 8.556-.336 2.909 0 5.778.116 8.571.34a127.408 127.408 0 014.527 7.557 139.791 139.791 0 014.05 7.883c-1.22 2.63-2.57 5.292-4.037 7.952zm8.28-46.866c3.146 1.897 4.37 9.548 2.392 19.581-.126.64-.268 1.293-.422 1.953-3.898-.94-8.13-1.64-12.563-2.075-2.581-3.844-5.257-7.339-7.942-10.364a60.113 60.113 0 012.161-2.072c6.937-6.312 13.42-8.804 16.373-7.023z" fill="#fff"/><path d="M53.003 40.818c4.634 0 8.39 3.927 8.39 8.773 0 4.844-3.756 8.772-8.39 8.772-4.633 0-8.39-3.928-8.39-8.773s3.757-8.772 8.39-8.772z" fill="#53C1DE"/></symbol><symbol fill="none" viewBox="0 0 128 100" id="sass" xmlns="http://www.w3.org/2000/svg"><path d="M109.974 57.449c-4.427.026-8.261 1.146-11.476 2.813-1.188-2.474-2.375-4.636-2.572-6.25-.223-1.876-.495-3.022-.223-5.26.272-2.24 1.509-5.418 1.509-5.678-.025-.235-.273-1.38-2.82-1.407-2.547-.026-4.749.521-4.996 1.224a31.14 31.14 0 00-1.064 3.985c-.445 2.448-5.095 11.12-7.741 15.677-.866-1.771-1.608-3.333-1.756-4.584-.223-1.874-.495-3.02-.223-5.26.272-2.24 1.509-5.417 1.509-5.677-.025-.234-.272-1.38-2.82-1.406-2.547-.026-4.748.52-4.996 1.224-.247.703-.519 2.37-1.063 3.984-.52 1.615-6.703 16.094-8.31 19.87a82.362 82.362 0 01-2.053 4.505c-.52 1.042-.025.078-.075.182l-.692 1.38v.027c-.346.651-.718 1.276-.89 1.276-.125 0-.372-1.745.048-4.14.916-5.027 3.142-12.865 3.117-13.152 0-.13.42-1.51-1.435-2.213-1.805-.703-2.448.468-2.597.468-.148 0-.272.417-.272.417s2.004-8.828-3.833-8.828c-3.66 0-8.706 4.193-11.204 8.021-1.583.912-4.947 2.838-8.509 4.896-1.36.781-2.77 1.615-4.105 2.37l-.272-.313c-7.074-7.943-20.158-13.568-19.614-24.245.198-3.88 1.484-14.115 25.13-26.51 19.366-10.157 34.873-7.37 37.57-1.172 3.833 8.854-8.287 25.312-28.42 27.682-7.666.911-11.698-2.214-12.712-3.385-1.064-1.224-1.212-1.276-1.608-1.042-.643.364-.247 1.458 0 2.11.594 1.64 3.067 4.557 7.272 6.015 3.685 1.276 12.688 1.98 23.57-2.448 12.194-4.974 21.716-18.776 18.922-30.312C77.425.548 58.925-3.307 41.438 3.23c-10.413 3.906-21.69 10-29.803 17.995C1.989 30.704.455 38.985 1.098 42.423c2.251 12.265 18.303 20.26 24.733 26.172-.321.182-.618.364-.89.52-3.215 1.667-15.458 8.412-18.525 15.547-3.463 8.073.544 13.88 3.215 14.662 8.261 2.422 16.72-1.927 21.296-9.089 4.55-7.161 4.006-16.458 1.904-20.703l-.075-.156 2.523-1.563a149.82 149.82 0 014.65-2.76c-.791 2.265-1.36 4.948-1.657 8.854-.346 4.583 1.435 10.52 3.785 12.864 1.038 1.016 2.275 1.042 3.042 1.042 2.72 0 3.957-2.37 5.317-5.208 1.682-3.464 3.166-7.474 3.166-7.474s-1.855 10.86 3.215 10.86c1.856 0 3.71-2.527 4.551-3.829v.026s.05-.078.149-.26a9.51 9.51 0 00.297-.495v-.052c.742-1.354 2.399-4.453 4.872-9.583 3.19-6.615 6.258-14.896 6.258-14.896s.296 2.031 1.211 5.364c.544 1.98 1.731 4.141 2.647 6.25-.742 1.094-1.188 1.72-1.188 1.72l.025.025a73.409 73.409 0 01-1.954 2.605c-2.522 3.177-5.54 6.797-5.935 7.838-.47 1.224-.371 2.136.544 2.865.668.52 1.855.625 3.116.52 2.275-.156 3.859-.754 4.65-1.12a15.834 15.834 0 004.007-2.213c2.473-1.927 3.982-4.66 3.833-8.307-.074-2.005-.692-3.984-1.459-5.86.223-.338.445-.677.668-1.04 3.908-6.017 6.925-12.631 6.925-12.631s.297 2.031 1.212 5.365c.47 1.692 1.41 3.541 2.25 5.364-3.66 3.152-5.96 6.797-6.751 9.193-1.46 4.427-.322 6.432 1.83 6.901.964.209 2.35-.26 3.388-.729a15.08 15.08 0 004.28-2.318c2.473-1.927 4.847-4.61 4.723-8.229-.074-1.666-.494-3.307-1.063-4.87 3.116-1.354 7.147-2.135 12.267-1.484 11.007 1.354 13.183 8.594 12.763 11.614-.42 3.022-2.721 4.688-3.488 5.209-.766.495-1.014.677-.939 1.041.098.548.445.521 1.113.418.915-.157 5.787-2.475 5.985-8.047.297-7.163-6.159-14.975-17.61-14.897zm-84.885 30.13c-3.635 4.193-8.755 5.781-10.932 4.427-2.35-1.432-1.434-7.604 3.043-12.057 2.72-2.709 6.257-5.209 8.582-6.745.52-.339 1.31-.833 2.25-1.432.15-.104.248-.157.248-.157.173-.104.371-.234.569-.364 1.657 6.354.074 11.927-3.76 16.328zm26.589-19.036c-1.262 3.255-3.933 11.614-5.54 11.145-1.386-.39-2.227-6.718-.273-12.968.99-3.152 3.092-6.901 4.328-8.36 2.004-2.344 4.18-3.125 4.725-2.161.643 1.25-2.449 10.312-3.24 12.344zm21.938 11.041c-.544.287-1.039.495-1.261.339-.174-.104.222-.495.222-.495s2.745-3.099 3.834-4.531c.618-.833 1.36-1.797 2.151-2.89v.312c0 3.75-3.412 6.25-4.946 7.265zm16.917-4.062c-.395-.313-.346-1.276.99-4.297.52-1.198 1.706-3.203 3.76-5.104.246.78.395 1.536.37 2.24-.024 4.687-3.19 6.431-5.12 7.16z" fill="#CF649A"/></symbol><symbol fill="none" viewBox="0 0 100 100" id="ts" xmlns="http://www.w3.org/2000/svg"><path d="M0 50v50h100V0H0v50z" fill="#007ACC"/><path d="M22.113 50.332l-.032 4.095h13.016v36.984h9.207V54.427H57.32v-4.016c0-2.222-.048-4.08-.111-4.127-.048-.063-7.969-.095-17.572-.08l-17.476.048-.048 4.08zM80.69 46.136c2.54.635 4.477 1.762 6.255 3.603.92.985 2.285 2.778 2.396 3.207.032.127-4.317 3.047-6.952 4.682-.095.064-.476-.349-.905-.984-1.285-1.873-2.635-2.682-4.698-2.825-3.032-.207-4.984 1.38-4.969 4.031 0 .778.112 1.239.43 1.873.666 1.381 1.904 2.207 5.793 3.89 7.158 3.079 10.222 5.11 12.127 8 2.127 3.222 2.603 8.364 1.159 12.19-1.588 4.159-5.524 6.984-11.064 7.92-1.714.302-5.778.254-7.62-.079-4.015-.714-7.825-2.698-10.174-5.302-.92-1.015-2.714-3.666-2.603-3.857.048-.063.46-.317.92-.587a914.44 914.44 0 003.715-2.143l2.873-1.666.603.888c.841 1.286 2.683 3.048 3.794 3.635 3.19 1.683 7.571 1.445 9.73-.492.92-.841 1.302-1.714 1.302-3 0-1.158-.143-1.666-.746-2.54-.778-1.11-2.365-2.047-6.873-4-5.16-2.222-7.381-3.603-9.413-5.793-1.175-1.27-2.286-3.302-2.746-5-.381-1.413-.476-4.952-.175-6.381 1.064-4.984 4.826-8.46 10.254-9.492 1.762-.333 5.857-.206 7.588.222z" fill="#fff"/></symbol></svg>